<svg width="84" height="84" viewBox="0 0 84 84" fill="none" xmlns="http://www.w3.org/2000/svg">
<rect width="84" height="84" fill="white"/>
<circle cx="41.5" cy="42.5" r="38.5" fill="#4F46E5" stroke="#4F46E5" stroke-width="2"/>
<path d="M52.2087 58.6398H62.4176V54.6049C62.4176 51.2622 59.6752 48.5524 56.2923 48.5524C54.3412 48.5524 52.6031 49.4538 51.4814 50.8582M52.2087 58.6398H31.7909M52.2087 58.6398V54.6049C52.2087 53.2809 51.9506 52.0165 51.4814 50.8582M31.7909 58.6398H21.582V54.6049C21.582 51.2622 24.3244 48.5524 27.7074 48.5524C29.6585 48.5524 31.3966 49.4538 32.5183 50.8582M31.7909 58.6398V54.6049C31.7909 53.2809 32.0491 52.0165 32.5183 50.8582M32.5183 50.8582C34.0236 47.1423 37.7015 44.5175 41.9998 44.5175C46.2982 44.5175 49.976 47.1423 51.4814 50.8582M48.1252 32.4126C48.1252 35.7553 45.3828 38.4651 41.9998 38.4651C38.6169 38.4651 35.8745 35.7553 35.8745 32.4126C35.8745 29.07 38.6169 26.3602 41.9998 26.3602C45.3828 26.3602 48.1252 29.07 48.1252 32.4126ZM60.3759 38.4651C60.3759 40.6935 58.5476 42.5 56.2923 42.5C54.037 42.5 52.2087 40.6935 52.2087 38.4651C52.2087 36.2366 54.037 34.4301 56.2923 34.4301C58.5476 34.4301 60.3759 36.2366 60.3759 38.4651ZM31.7909 38.4651C31.7909 40.6935 29.9627 42.5 27.7074 42.5C25.4521 42.5 23.6238 40.6935 23.6238 38.4651C23.6238 36.2366 25.4521 34.4301 27.7074 34.4301C29.9627 34.4301 31.7909 36.2366 31.7909 38.4651Z" stroke="white" stroke-width="2" stroke-linecap="round" stroke-linejoin="round"/>
</svg>
