<svg width="84" height="84" viewBox="0 0 84 84" fill="none" xmlns="http://www.w3.org/2000/svg">
<rect width="84" height="84" fill="white"/>
<circle cx="41.5" cy="42.5" r="38.5" fill="#4F46E5" stroke="#4F46E5" stroke-width="2"/>
<path d="M47.4256 32.625C49.6071 32.625 51.3756 34.3935 51.3756 36.575M59.2756 36.575C59.2756 43.1195 53.9702 48.425 47.4256 48.425C46.2284 48.425 45.0727 48.2474 43.9833 47.9173L39.5256 52.375H35.5756V56.325H31.6256V60.275H25.7006C24.6098 60.275 23.7256 59.3907 23.7256 58.3V53.193C23.7256 52.6692 23.9337 52.1669 24.304 51.7965L36.0833 40.0173C35.7531 38.9279 35.5756 37.7722 35.5756 36.575C35.5756 30.0304 40.881 24.725 47.4256 24.725C53.9702 24.725 59.2756 30.0304 59.2756 36.575Z" stroke="white" stroke-width="2" stroke-linecap="round" stroke-linejoin="round"/>
</svg>
