<svg width="84" height="84" viewBox="0 0 84 84" fill="none" xmlns="http://www.w3.org/2000/svg">
<rect width="84" height="84" fill="white"/>
<circle cx="41.5" cy="42.5" r="38.5" fill="#4F46E5" stroke="#4F46E5" stroke-width="2"/>
<path d="M41.5006 46.4499L59.2756 36.575L41.5006 26.7L23.7256 36.575L41.5006 46.4499ZM41.5006 46.4499L53.6648 39.692C54.7365 42.3945 55.3256 45.3409 55.3256 48.4248C55.3256 49.8099 55.2068 51.1673 54.9788 52.4872C49.8238 52.9885 45.1524 55.1412 41.5006 58.4096C37.8487 55.1412 33.1774 52.9885 28.0224 52.4872C27.7944 51.1672 27.6756 49.8099 27.6756 48.4247C27.6756 45.3408 28.2646 42.3944 29.3363 39.692L41.5006 46.4499ZM33.6006 58.2998V43.4874L41.5006 39.0986" stroke="white" stroke-width="2" stroke-linecap="round" stroke-linejoin="round"/>
</svg>
