<svg width="190" height="67" viewBox="0 0 190 67" fill="none" xmlns="http://www.w3.org/2000/svg">
<rect width="190" height="67" fill="white"/>
<path d="M89.8454 21.9523H93.1802L99.8497 33.1777H100.131L106.801 21.9523H110.136L101.447 36.0897V46H98.5345V36.0897L89.8454 21.9523ZM133.062 33.9761C133.062 36.5124 132.604 38.7043 131.688 40.5517C130.772 42.3991 129.516 43.8238 127.919 44.8258C126.322 45.8278 124.498 46.3288 122.447 46.3288C120.396 46.3288 118.572 45.8278 116.975 44.8258C115.379 43.8238 114.122 42.3991 113.206 40.5517C112.29 38.7043 111.832 36.5124 111.832 33.9761C111.832 31.4399 112.29 29.248 113.206 27.4006C114.122 25.5532 115.379 24.1285 116.975 23.1265C118.572 22.1245 120.396 21.6235 122.447 21.6235C124.498 21.6235 126.322 22.1245 127.919 23.1265C129.516 24.1285 130.772 25.5532 131.688 27.4006C132.604 29.248 133.062 31.4399 133.062 33.9761ZM130.244 33.9761C130.244 31.8939 129.896 30.1365 129.199 28.704C128.51 27.2714 127.575 26.1872 126.393 25.4514C125.218 24.7156 123.903 24.3476 122.447 24.3476C120.991 24.3476 119.672 24.7156 118.49 25.4514C117.316 26.1872 116.381 27.2714 115.684 28.704C114.995 30.1365 114.651 31.8939 114.651 33.9761C114.651 36.0584 114.995 37.8158 115.684 39.2483C116.381 40.6808 117.316 41.765 118.49 42.5009C119.672 43.2367 120.991 43.6046 122.447 43.6046C123.903 43.6046 125.218 43.2367 126.393 42.5009C127.575 41.765 128.51 40.6808 129.199 39.2483C129.896 37.8158 130.244 36.0584 130.244 33.9761ZM137.959 46V21.9523H140.871V43.4167H152.049V46H137.959ZM156.558 46V21.9523H159.47V33.8822H159.752L170.554 21.9523H174.359L164.261 32.8019L174.359 46H170.836L162.476 34.8216L159.47 38.2033V46H156.558Z" fill="#4F46E5"/>
<path d="M34.6152 25.0582C39.3195 25.0584 43.1307 28.8638 43.1309 33.5543C43.1309 38.245 39.3196 42.0502 34.6152 42.0504C29.9107 42.0504 26.0986 38.2452 26.0986 33.5543C26.0988 28.8636 29.9108 25.0582 34.6152 25.0582Z" fill="#84CC16" stroke="#84CC16" stroke-width="1.37773"/>
<path d="M18.9971 6.68848C22.1581 6.68871 24.7207 9.25202 24.7207 12.4131V54.6963C24.7207 57.8574 22.1581 60.4207 18.9971 60.4209C14.4229 60.4209 11.6962 55.32 14.2373 51.5166L21.1377 41.1885C24.225 36.5675 24.225 30.5418 21.1377 25.9209L14.2373 15.5928C11.6962 11.7893 14.4229 6.68848 18.9971 6.68848Z" stroke="#84CC16" stroke-width="1.37773"/>
<path d="M50.2324 6.68848C54.8064 6.68873 57.5322 11.7894 54.9912 15.5928L48.0908 25.9209C45.0036 30.5418 45.0036 36.5676 48.0908 41.1885L54.9912 51.5166C57.5322 55.32 54.8064 60.4206 50.2324 60.4209C47.0712 60.4209 44.5078 57.8575 44.5078 54.6963V12.4131C44.5078 9.25188 47.0712 6.68848 50.2324 6.68848Z" stroke="#84CC16" stroke-width="1.37773"/>
<path d="M61.5391 49.1488C61.5389 53.7146 56.452 56.4402 52.6504 53.9115L42.251 46.9935C37.6242 43.9157 31.6024 43.9156 26.9756 46.9935L16.5762 53.9115C12.7746 56.4399 7.68867 53.7145 7.68848 49.1488C7.68848 45.9897 10.2492 43.4282 13.4082 43.4281L55.8184 43.4281C58.9775 43.4281 61.5391 45.9897 61.5391 49.1488Z" stroke="#4F46E5" stroke-width="1.37773"/>
<path d="M61.5391 17.9609C61.539 21.12 58.9774 23.6807 55.8184 23.6807L13.4082 23.6807C10.2492 23.6806 7.68851 21.12 7.68848 17.9609C7.68848 13.395 12.7745 10.6696 16.5762 13.1982L26.9756 20.1162C31.6023 23.194 37.6242 23.1939 42.251 20.1162L52.6504 13.1982C56.452 10.6693 61.5391 13.3949 61.5391 17.9609Z" stroke="#4F46E5" stroke-width="1.37773"/>
</svg>
