<?xml version="1.0" encoding="UTF-8"?>
<svg id="Layer_1" xmlns="http://www.w3.org/2000/svg" viewBox="0 0 100 100">
  <defs>
    <style>
      .cls-1 {
        fill: #ddd;
      }
    </style>
  </defs>
  <g id="Cn1Uic.tif">
    <path class="cls-1" d="M78.69,20.5c-2.12,2.27-4.2,4.49-6.28,6.72-12.22-12.08-30.86-11.29-42.02-2.63-11.13,8.64-15.27,23.85-9.97,37.2,5.25,13.19,18.56,21.09,33.1,19.49,7.93-.87,14.66-4.28,20-10.25,5.3-5.93,8.17-12.88,8.39-20.94h8.93c.64,12.92-7.37,31.75-27.38,38.64-19.68,6.77-41-2-50.16-20.65-8.81-17.93-3.53-40.34,13.86-52.05,15.32-10.32,37.93-9.63,51.52,4.48Z"/>
  </g>
</svg>